<svg width="16" height="16" viewBox="0 0 16 16" fill="none" xmlns="http://www.w3.org/2000/svg">
<path d="M7.99997 1C6.12038 1.02635 4.32796 1.79701 3.01573 3.14297C1.70351 4.48894 0.978606 6.30035 0.999971 8.18C0.999971 11.35 2.99997 14.04 5.78997 14.98C5.82997 15 5.86997 15 5.90997 15C6.16997 15 6.26997 14.8 6.26997 14.64L6.25997 13.42C5.98997 13.48 5.75997 13.51 5.54997 13.51C4.19997 13.51 3.89997 12.46 3.89997 12.46C3.57997 11.63 3.11997 11.41 3.11997 11.41C2.50997 10.98 3.11997 10.97 3.15997 10.97C3.85997 11.03 4.23997 11.71 4.23997 11.71C4.58997 12.32 5.05997 12.5 5.46997 12.5C5.79997 12.5 6.09997 12.4 6.26997 12.3C6.33997 11.85 6.51997 11.53 6.71997 11.35C5.16997 11.17 3.52997 10.55 3.52997 7.8C3.52997 7.02 3.79997 6.38 4.24997 5.88C4.17997 5.7 3.93997 4.97 4.31997 3.98C4.31997 3.98 4.36997 3.96 4.46997 3.96C4.72997 3.96 5.29997 4.06 6.23997 4.72C7.38825 4.40118 8.60169 4.40118 9.74997 4.72C10.69 4.06 11.27 3.96 11.52 3.96C11.62 3.96 11.68 3.98 11.68 3.98C12.06 4.97 11.82 5.7 11.74 5.88C12.19 6.38 12.46 7.02 12.46 7.8C12.46 10.56 10.82 11.17 9.25997 11.34C9.51997 11.57 9.73997 12 9.73997 12.67V14.64C9.73997 14.81 9.82997 15 10.09 15C10.1302 15.0007 10.1704 14.9973 10.21 14.99C11.6187 14.4959 12.8377 13.5738 13.6966 12.3528C14.5554 11.1318 15.0111 9.6728 15 8.18C15.0213 6.30035 14.2964 4.48894 12.9842 3.14297C11.672 1.79701 9.87956 1.02635 7.99997 1Z" fill="#B2BECD"/>
</svg>
