<svg width="16" height="16" viewBox="0 0 16 16" fill="none" xmlns="http://www.w3.org/2000/svg">
<path d="M15.375 3.42188C14.8225 3.66618 14.2368 3.82726 13.637 3.89988C14.27 3.52191 14.7438 2.92654 14.97 2.22488C14.385 2.57188 13.738 2.82488 13.048 2.95888C12.5928 2.47046 11.9887 2.14632 11.3301 2.03696C10.6714 1.9276 9.99506 2.03916 9.4064 2.35426C8.81774 2.66936 8.34983 3.17031 8.07555 3.77906C7.80128 4.38781 7.73604 5.07019 7.89 5.71988C6.6862 5.66003 5.50853 5.34705 4.43385 4.80135C3.35917 4.25565 2.41161 3.4895 1.653 2.55288C1.26516 3.21988 1.14647 4.00974 1.32116 4.76126C1.49585 5.51279 1.95074 6.16933 2.593 6.59688C2.093 6.58388 1.625 6.44688 1.219 6.21888V6.25588C1.21876 6.95498 1.46044 7.63263 1.903 8.17381C2.34557 8.71499 2.96177 9.08635 3.64701 9.22488C3.38719 9.29529 3.11919 9.33093 2.85 9.33088C2.656 9.33088 2.466 9.31188 2.281 9.27488C2.47428 9.8767 2.85093 10.403 3.35821 10.7801C3.8655 11.1572 4.47802 11.3662 5.11 11.3779C4.48244 11.8712 3.76366 12.2359 2.99489 12.4509C2.22612 12.6659 1.42246 12.7271 0.630005 12.6309C2.00695 13.5271 3.61511 14.0028 5.258 13.9999C10.83 13.9999 13.874 9.38388 13.874 5.38088C13.874 5.24988 13.871 5.11888 13.864 4.99088C14.4566 4.56144 14.968 4.02979 15.374 3.42088L15.375 3.42188Z" fill="#B2BECD"/>
</svg>
