<svg width="96" height="40" viewBox="0 0 96 40" fill="none" xmlns="http://www.w3.org/2000/svg">
<g clip-path="url(#clip0_2_502)">
<path fill-rule="evenodd" clip-rule="evenodd" d="M44.264 6.15001L43.312 2.53001L41.052 6.15001H38.376L36.116 2.53001L35.164 6.15001H32.309L34.153 0.531006H37.305L39.744 4.36601L42.123 0.532006H45.275L47.119 6.14901H44.264V6.15001ZM23.461 0.532006L19.298 6.09501H22.093L22.747 5.12301H27.089L27.744 6.09501H30.836L26.673 0.532006H23.461ZM23.461 4.09701L24.948 1.88301L26.435 4.09701H23.461ZM76.398 0.532006L72.235 6.09501H75.03L75.684 5.12301H80.026L80.68 6.09501H83.773L79.61 0.532006H76.398ZM76.398 4.09701L77.885 1.88301L79.372 4.09701H76.398ZM92.086 6.15001L88.696 3.50301V6.14901H85.84V0.532006H88.694V3.01701L92.084 0.532006H95.534L91.668 3.23201L95.832 6.14901H92.085L92.086 6.15001ZM67.372 6.15001H70.643L68.502 3.98901C69.692 3.71901 70.167 3.07101 70.167 2.36901C70.167 1.50501 69.513 1.07301 68.561 0.803006C67.551 0.586006 66.241 0.533006 64.993 0.533006H60.59V6.09501H63.445V4.42101H65.884L67.371 6.14901L67.372 6.15001ZM63.446 1.66701H65.231C66.718 1.66701 67.312 1.93701 67.312 2.47701C67.312 2.90901 66.896 3.23301 66.42 3.28701C66.0074 3.35778 65.5896 3.3939 65.171 3.39501H63.446V1.66701ZM54.658 1.82901V6.14901H51.744V1.83001H48.056L48.353 0.533006H58.405L58.108 1.83001H54.658V1.82901ZM39.788 33.896C45.564 36.243 51.497 38.435 56.648 40C62.739 27.79 75.549 18.087 96 9.16501V8.69501C69.19 15.465 51.653 21.061 39.788 33.895V33.896ZM51.349 10.008C45.912 9.58501 12.483 9.21001 0.789978 14.826C3.99998 16.71 8.13798 19.046 13.084 21.659C27.454 14.579 49.574 12.596 60.982 12.193V11.811C58.044 11.387 53.146 10.149 51.348 10.008H51.349Z" fill="white"/>
<path fill-rule="evenodd" clip-rule="evenodd" d="M62.933 12.7379C51.62 14.2559 30.553 15.5649 19.24 24.6699C23.444 26.8889 28.605 29.1359 33.036 31.1229C49.487 17.9519 66.11 15.3179 80.911 12.0469V11.7019C72.275 12.3559 67.298 12.3019 62.933 12.7379Z" fill="white"/>
</g>
<defs>
<clipPath id="clip0_2_502">
<rect width="96" height="40" fill="white"/>
</clipPath>
</defs>
</svg>
